<?xml version="1.0" encoding="utf-8"?>
<!-- Generator: Adobe Illustrator 18.0.0, SVG Export Plug-In . SVG Version: 6.00 Build 0)  -->
<!DOCTYPE svg PUBLIC "-//W3C//DTD SVG 1.1//EN" "http://www.w3.org/Graphics/SVG/1.1/DTD/svg11.dtd">
<svg version="1.1" id="Layer_1" xmlns="http://www.w3.org/2000/svg" xmlns:xlink="http://www.w3.org/1999/xlink" x="0px" y="0px"
	 viewBox="0 0 67.3 67" enable-background="new 0 0 67.3 67" xml:space="preserve">
<g>
	<path fill="#383A39" d="M36.8,4.2c0,1.7-1.4,3.1-3.1,3.1c-1.7,0-3.1-1.4-3.1-3.1c0-1.7,1.4-3.1,3.1-3.1C35.4,1,36.8,2.4,36.8,4.2
		L36.8,4.2z M36.8,4.2"/>
	<path fill="#ECEEEE" d="M36.8,62.8c0,1.7-1.4,3.1-3.1,3.1c-1.7,0-3.1-1.4-3.1-3.1c0-1.7,1.4-3.1,3.1-3.1
		C35.4,59.7,36.8,61.1,36.8,62.8L36.8,62.8z M36.8,62.8"/>
	<path fill="#788080" d="M22.1,8.1c0,1.7-1.4,3.1-3.1,3.1c-1.7,0-3.1-1.4-3.1-3.1c0-1.7,1.4-3.1,3.1-3.1C20.7,4.9,22.1,6.3,22.1,8.1
		L22.1,8.1z M22.1,8.1"/>
	<path fill="#F2F4F4" d="M51,57.4c0.8,1.5,0.3,3.4-1.2,4.3c-1.5,0.8-3.4,0.3-4.3-1.2c-0.8-1.5-0.3-3.4,1.2-4.3
		C48.2,55.4,50.2,55.9,51,57.4L51,57.4z M51,57.4"/>
	<path fill="#9FAAA9" d="M9.8,16.1c1.5,0.8,2,2.7,1.2,4.3c-0.8,1.5-2.7,2-4.3,1.2c-1.5-0.8-2-2.7-1.2-4.3
		C6.3,15.7,8.3,15.3,9.8,16.1L9.8,16.1z M9.8,16.1"/>
	<path fill="#F2F7F7" d="M60.6,45.4c1.5,0.8,2,2.7,1.2,4.3c-0.8,1.5-2.7,2-4.3,1.2c-1.5-0.8-2-2.7-1.2-4.3
		C57.2,45.1,59.1,44.6,60.6,45.4L60.6,45.4z M60.6,45.4"/>
	<path fill="#B2BBBA" d="M7.4,33.5c0,1.7-1.4,3.1-3.1,3.1c-1.7,0-3.1-1.4-3.1-3.1c0-1.7,1.4-3.1,3.1-3.1C6,30.4,7.4,31.8,7.4,33.5
		L7.4,33.5z M7.4,33.5"/>
	<path fill="#FFFFFF" d="M66.1,33.5c0,1.7-1.4,3.1-3.1,3.1c-1.7,0-3.1-1.4-3.1-3.1c0-1.7,1.4-3.1,3.1-3.1
		C64.7,30.4,66.1,31.8,66.1,33.5L66.1,33.5z M66.1,33.5"/>
	<path fill="#C5CCCB" d="M6.6,45.4c1.5-0.8,3.4-0.3,4.3,1.2c0.8,1.5,0.3,3.4-1.2,4.3c-1.5,0.8-3.4,0.3-4.3-1.2
		C4.5,48.3,5.1,46.4,6.6,45.4L6.6,45.4z M6.6,45.4"/>
	<path d="M57.5,16.1c1.5-0.8,3.4-0.3,4.3,1.2c0.8,1.5,0.3,3.4-1.2,4.3c-1.5,0.8-3.4,0.3-4.3-1.2C55.5,18.9,56,17,57.5,16.1
		L57.5,16.1z M57.5,16.1"/>
	<path fill="#D9DDDD" d="M16.2,57.4c0.8-1.5,2.7-2,4.3-1.2c1.5,0.8,2,2.7,1.2,4.3c-0.8,1.5-2.7,2-4.3,1.2
		C15.9,60.7,15.4,58.8,16.2,57.4L16.2,57.4z M16.2,57.4"/>
	<path fill="#111111" d="M45.6,6.5c0.8-1.5,2.7-2,4.3-1.2c1.5,0.8,2,2.7,1.2,4.3c-0.8,1.5-2.7,2-4.3,1.2C45.2,9.9,44.7,8.1,45.6,6.5
		L45.6,6.5z M45.6,6.5"/>
</g>
</svg>
